<?xml version="1.0"?>
<svg xmlns="http://www.w3.org/2000/svg" viewBox="0 0 24 24">
    <path d="M 3.75 3 C 3.559 3.005625 3.36375 3.07375 3.21875 3.21875 C 2.94275 3.49475 2.91625 3.942 3.15625 4.25 L 4 5.3125 L 4 9.5 C 4 9.776 3.776 10 3.5 10 C 3.224 10 3 9.776 3 9.5 L 3 9 L 2 9 L 2 9.5 C 2 10.327 2.673 11 3.5 11 C 4.327 11 5 10.327 5 9.5 L 5 6.59375 L 11 13 L 3 13 C 2.448 13 2 13.448 2 14 L 2 17 C 2 17.552 2.448 18 3 18 L 4 18 C 4 16.343 5.343 15 7 15 C 8.657 15 10 16.343 10 18 L 14 18 C 14 16.343 15.343 15 17 15 C 18.657 15 20 16.343 20 18 L 21 18 C 21.552 18 22 17.552 22 17 L 22 12.75 L 20.15625 9.09375 C 19.81725 8.41575 19.133 8 18.375 8 L 15 8 C 14.448 8 14 8.448 14 9 L 14 10 L 4.28125 3.1875 C 4.12825 3.051 3.941 2.994375 3.75 3 z M 16 10 L 18.375 10 L 19.875 13 L 16 13 L 16 10 z M 7 16 C 5.8954305 16 5 16.895431 5 18 C 5 19.104569 5.8954305 20 7 20 C 8.1045695 20 9 19.104569 9 18 C 9 16.895431 8.1045695 16 7 16 z M 17 16 C 15.895431 16 15 16.895431 15 18 C 15 19.104569 15.895431 20 17 20 C 18.104569 20 19 19.104569 19 18 C 19 16.895431 18.104569 16 17 16 z"/>
</svg>
